<?xml version="1.0" standalone="no"?>
<!DOCTYPE svg PUBLIC "-//W3C//DTD SVG 1.1//EN" "http://www.w3.org/Graphics/SVG/1.1/DTD/svg11.dtd" >
<svg xmlns="http://www.w3.org/2000/svg" xmlns:xlink="http://www.w3.org/1999/xlink" version="1.1">
<metadata></metadata>
<defs>
<font id="be_vietnammedium" horiz-adv-x="1224" >
<font-face units-per-em="2048" ascent="1638" descent="-410" />
<missing-glyph horiz-adv-x="471" />
<glyph horiz-adv-x="0" />
<glyph unicode="&#xd;" horiz-adv-x="1228" />
<glyph unicode=" "  horiz-adv-x="471" />
<glyph unicode="&#x09;" horiz-adv-x="471" />
<glyph unicode="&#xa0;" horiz-adv-x="471" />
<glyph unicode="!" horiz-adv-x="522" d="M135 109q0 53 36 88.5t91 35.5q53 0 90 -35.5t37 -88.5t-37 -90t-90 -37q-55 0 -91 36.5t-36 90.5zM150 1323v205h225v-205l-39 -913h-150z" />
<glyph unicode="&#x22;" horiz-adv-x="1069" d="M152 1190v76q0 129 63.5 204.5t171.5 106.5v-78q-125 -53 -125 -160q0 -53 19.5 -66t58.5 -13q57 -2 80.5 -34t23.5 -73q0 -57 -35.5 -94t-103.5 -37q-154 0 -153 168zM625 1192v78q0 129 64.5 204.5t170.5 106.5v-78q-127 -53 -127 -162q0 -53 20.5 -65t59.5 -12 q57 -2 81 -34t24 -73q0 -57 -36 -94t-104 -37q-88 0 -120.5 49t-32.5 117z" />
<glyph unicode="#" horiz-adv-x="1802" d="M164 371l35 153h313l80 363h-332l35 155h330l84 392h176v-25l-80 -367h352l84 392h174v-25l-80 -367h310l-35 -155h-307l-78 -363h323l-35 -153h-321l-80 -371h-176v25l76 346h-350l-80 -371h-176v25l73 346h-315zM694 524h350l78 363h-350z" />
<glyph unicode="$" horiz-adv-x="1177" d="M86 459h217q10 -94 71.5 -180t182.5 -105v455l-51 8q-94 25 -170 55.5t-144.5 111.5t-68.5 216q0 174 118.5 282.5t315.5 118.5v142h84v-142q211 -12 322.5 -136t123.5 -310h-208q-12 92 -64.5 174t-173.5 98v-444l80 -17q389 -86 389 -383q0 -122 -60.5 -216.5 t-167 -146.5t-241.5 -56v-150h-84v152q-147 14 -251.5 84.5t-159 174t-60.5 214.5zM332 1030q0 -82 59.5 -137t130.5 -66l35 -8v428q-98 -10 -161.5 -70.5t-63.5 -146.5zM641 168q113 4 187.5 65.5t74.5 157.5q0 92 -64.5 145.5t-150.5 67.5l-47 8v-444z" />
<glyph unicode="%" horiz-adv-x="1673" d="M72 1159q0 121 67.5 208t208.5 87t205.5 -86t64.5 -209t-64.5 -210t-205.5 -87q-139 0 -207.5 88t-68.5 209zM225 1159q0 -70 27 -122t98 -52q74 0 98.5 51t24.5 123q0 174 -123 174q-74 0 -99.5 -53t-25.5 -121zM377 0l739 1434h182l-739 -1434h-182zM1055 276 q0 119 67.5 207t208.5 88q139 0 205 -87t66 -208t-66 -208.5t-205 -87.5t-207.5 88t-68.5 208zM1210 276q0 -174 123 -174q74 0 98.5 50.5t24.5 123.5q0 72 -23.5 123.5t-99.5 51.5q-72 0 -97.5 -52.5t-25.5 -122.5z" />
<glyph unicode="&#x26;" horiz-adv-x="1320" d="M102 356q0 141 76 234.5t201 142.5l67 25v8l-10 10q-61 66 -105 143.5t-44 184.5q0 115 56 195.5t147.5 120.5t197.5 40q111 0 207 -44t155.5 -131t59.5 -212v-47h-219v33q0 104 -58.5 161.5t-144.5 57.5q-80 0 -137 -48t-57 -136q0 -51 19 -96.5t47 -80t91 -106.5 l238 -270l125 225h213l-219 -365l352 -401h-244l-201 229h-12l-12 -18q-49 -82 -148.5 -153.5t-248.5 -71.5q-111 0 -200 44t-140.5 128t-51.5 198zM305 383q0 -96 61.5 -154.5t159.5 -58.5q100 0 159.5 52t100.5 122l13 21l-244 274l-78 -27q-82 -29 -127 -89t-45 -140z " />
<glyph unicode="'" horiz-adv-x="612" d="M160 1513q0 57 35.5 93t103.5 36q154 0 154 -165v-78q0 -129 -64.5 -204t-171.5 -105v77q125 53 125 160q0 53 -19.5 65.5t-58.5 14.5q-57 2 -80.5 34t-23.5 72z" />
<glyph unicode="(" horiz-adv-x="962" d="M223 596q0 252 74 463t190.5 357.5t247.5 217.5l60 -61q-86 -78 -170 -224.5t-137.5 -343t-53.5 -409.5t54.5 -408.5t137.5 -343t169 -225.5l-58 -59q-137 80 -253.5 228.5t-188.5 356t-72 451.5z" />
<glyph unicode=")" horiz-adv-x="1044" d="M250 -381q86 78 169 225.5t137 343t54 408.5t-54 408.5t-137 343t-169 225.5l57 61q131 -72 248 -218t191.5 -357t74.5 -463q0 -244 -71.5 -451.5t-188.5 -356t-254 -228.5z" />
<glyph unicode="*" horiz-adv-x="1044" d="M168 1077l248 121l-248 123l70 123l233 -160l-18 287h139l-19 -289l236 162l68 -123l-248 -123l248 -121l-68 -123l-236 158l19 -285h-139l18 285l-233 -158z" />
<glyph unicode="+" horiz-adv-x="1191" d="M182 547v186h322v320h184v-320h320v-186h-320v-322h-184v322h-322z" />
<glyph unicode="," horiz-adv-x="608" d="M150 94q0 59 36.5 97t106.5 38q160 0 160 -172v-80q0 -135 -67 -212.5t-177 -108.5v80q129 55 129 166q0 55 -20.5 68.5t-61.5 13.5q-57 2 -81.5 34.5t-24.5 75.5z" />
<glyph unicode="-" d="M240 553v172h747v-172h-747z" />
<glyph unicode="." horiz-adv-x="591" d="M164 119q0 55 38 93t95 38t95 -38t38 -93t-38 -94t-95 -39t-95 38.5t-38 94.5z" />
<glyph unicode="/" horiz-adv-x="1062" d="M94 -344l711 1978h203l-709 -1978h-205z" />
<glyph unicode="0" horiz-adv-x="1249" d="M96 623v198q0 287 131 464t396 177q264 0 395 -177t131 -464v-198q0 -287 -131 -466.5t-395 -179.5q-265 0 -396 179.5t-131 466.5zM330 623q0 -227 73.5 -344t219.5 -117q145 0 218.5 116.5t73.5 344.5v196q0 457 -292 457q-293 0 -293 -457v-196z" />
<glyph unicode="1" horiz-adv-x="1030" d="M180 909v252l291 273h209v-1246h272v-188h-770v188h297v992h-8z" />
<glyph unicode="2" horiz-adv-x="1204" d="M137 0v182l305 273q41 37 62 53q133 113 205.5 185.5t122 155.5t49.5 175q0 109 -64.5 182.5t-195.5 73.5q-158 0 -214.5 -89t-56.5 -196v-16h-209q0 131 52.5 241.5t160 177t264.5 66.5q154 0 258.5 -60.5t155.5 -158.5t51 -213q0 -125 -55 -230.5t-132 -182 t-216 -197.5l-258 -223v-11h676v-188h-961z" />
<glyph unicode="3" horiz-adv-x="1210" d="M111 371h215q27 -90 99.5 -144.5t190.5 -54.5q139 0 211 69.5t72 178.5q0 117 -81 179.5t-202 62.5h-133v165h129q113 0 190 55.5t77 170.5q0 109 -73 172t-194 63q-113 0 -179 -54t-85 -142h-207q25 156 137.5 266t335.5 110q162 0 268.5 -59t157 -152.5t50.5 -195.5 q0 -109 -49.5 -178.5t-106.5 -102t-76 -32.5v-13q27 -4 85 -33.5t110.5 -103.5t52.5 -197q0 -113 -53.5 -208t-163 -152t-271.5 -57q-229 0 -355 110.5t-152 276.5z" />
<glyph unicode="4" horiz-adv-x="1241" d="M88 352v178l592 904h266v-916h197v-168h-197v-350h-209v350zM295 520h444v662z" />
<glyph unicode="5" horiz-adv-x="1232" d="M137 385h213q27 -102 104.5 -153.5t176.5 -51.5q137 0 212 87t75 231q0 150 -81 229.5t-208 79.5q-125 0 -179.5 -55.5t-76.5 -110.5l-217 8l39 785h839v-195h-663l-23 -426h10q29 47 103 99.5t217 52.5q133 0 235.5 -56.5t158.5 -163t56 -249.5q0 -141 -58 -256 t-170 -182.5t-267 -67.5q-144 0 -250.5 55t-167.5 145.5t-78 194.5z" />
<glyph unicode="6" horiz-adv-x="1208" d="M106 487q0 170 65 311.5t189 323.5l209 312h211l-436 -652l6 -2l33 33q113 113 279 113q127 0 227 -58.5t157.5 -164t57.5 -242.5q0 -152 -66.5 -259.5t-178 -162.5t-247.5 -55q-131 0 -245.5 53t-187.5 166.5t-73 283.5zM311 461q0 -125 78 -214t213 -89q94 0 161.5 42 t101.5 111.5t34 147.5t-35 148.5t-102.5 114.5t-161.5 44q-135 0 -212 -89t-77 -216z" />
<glyph unicode="7" horiz-adv-x="1056" d="M51 1239v195h930v-213l-537 -1221h-219v25l549 1198v16h-723z" />
<glyph unicode="8" horiz-adv-x="1249" d="M115 391q0 98 40 172t95 118t106 60v9q-72 31 -132 112.5t-60 200.5q0 102 51 193.5t157.5 147.5t260.5 56q158 0 262 -57t154.5 -148.5t50.5 -191.5q0 -119 -62.5 -202t-130.5 -111v-9q49 -16 105.5 -60t96.5 -118t40 -172q0 -109 -55.5 -204t-172 -153.5t-290.5 -58.5 t-290 58.5t-171 154t-55 203.5zM326 416q0 -109 76.5 -185.5t228.5 -76.5q151 0 229 77.5t78 184.5q0 109 -78 187.5t-229 78.5q-152 0 -228.5 -78t-76.5 -188zM365 1049q0 -98 66.5 -167t199.5 -69t200.5 68.5t67.5 167.5q0 96 -67.5 166.5t-200.5 70.5t-199.5 -69.5 t-66.5 -167.5z" />
<glyph unicode="9" horiz-adv-x="1208" d="M106 981q0 152 67 261.5t179.5 164.5t247.5 55q129 0 243.5 -54t187.5 -168t73 -282q0 -121 -35 -230.5t-87 -200.5t-134 -212l-207 -315l-231 -2l456 659l-6 5l-35 -35q-111 -111 -276 -111q-129 0 -229.5 58.5t-157 164t-56.5 242.5zM311 983q0 -78 34 -148.5 t101.5 -114.5t161.5 -44q135 0 213 89t78 216q0 82 -35 151.5t-100.5 112.5t-155.5 43q-94 0 -161.5 -43t-101.5 -112.5t-34 -149.5z" />
<glyph unicode=":" horiz-adv-x="626" d="M152 119q0 55 38 93t95 38t95 -38t38 -93t-38 -94t-95 -39t-95 38.5t-38 94.5zM152 940q0 55 38 93t95 38t95 -38t38 -93t-38 -94t-95 -39t-95 38.5t-38 94.5z" />
<glyph unicode=";" horiz-adv-x="669" d="M185 96q0 59 36.5 97t106.5 38q160 0 160 -172v-80q0 -135 -67 -212.5t-177 -108.5v80q129 55 129 166q0 55 -20.5 68.5t-61.5 13.5q-57 2 -81.5 34.5t-24.5 75.5zM191 940q0 55 38 93t95 38t95 -38t38 -93t-38 -94t-95 -39t-95 38.5t-38 94.5z" />
<glyph unicode="&#x3c;" horiz-adv-x="1167" d="M207 596v145l731 392h25v-187l-541 -272v-10l541 -273v-186h-25z" />
<glyph unicode="=" horiz-adv-x="1454" d="M246 319v179h962v-179h-962zM246 772v178h962v-178h-962z" />
<glyph unicode="&#x3e;" horiz-adv-x="1167" d="M207 205v186l541 273v10l-541 272v187h24l732 -392v-145l-732 -391h-24z" />
<glyph unicode="?" horiz-adv-x="1181" d="M117 985v6q0 139 59.5 247t170 167t257.5 59q141 0 249 -53t166 -147.5t58 -212.5q0 -84 -31.5 -154t-75.5 -120t-116 -115q-86 -80 -127 -135.5t-41 -123.5v-16h-211v16q0 96 50 168t151 168q94 90 140 153.5t46 147.5q0 109 -71.5 168.5t-188.5 59.5q-143 0 -207.5 -86 t-64.5 -191v-6h-213zM457 109q0 53 34.5 88.5t90.5 35.5q53 0 90 -35.5t37 -88.5t-37 -90t-90 -37q-56 0 -90.5 36.5t-34.5 90.5z" />
<glyph unicode="@" horiz-adv-x="2070" d="M143 561q0 270 117 473t320.5 312.5t461.5 109.5q260 0 462 -110.5t312.5 -299t110.5 -415.5q0 -162 -55 -271.5t-147.5 -163t-204.5 -53.5q-180 0 -283 185h-10q-25 -80 -95.5 -136.5t-183.5 -56.5q-115 0 -194.5 59.5t-118.5 155.5t-39 211t39 212t115.5 156.5 t189.5 59.5q92 0 155.5 -38t92.5 -93h10v117h164v-361q0 -104 10 -174.5t50 -121t120 -50.5q106 0 165.5 89t59.5 255q0 201 -89 355.5t-255 241.5t-387 87q-219 0 -383 -88t-253 -252.5t-89 -388.5q0 -227 92.5 -395t265.5 -259t412 -91h500v-160h-524q-279 0 -485.5 114.5 t-317.5 318.5t-111 466zM772 563q0 -123 55.5 -202.5t159.5 -79.5q105 0 159 79.5t54 202.5q0 125 -54 205t-159 80q-104 0 -159.5 -81t-55.5 -204z" />
<glyph unicode="A" horiz-adv-x="1388" d="M66 0l530 1434h201l532 -1434h-215l-141 395h-555l-137 -395h-215zM477 563h436l-215 602h-10z" />
<glyph unicode="B" horiz-adv-x="1277" d="M141 0v1434h584q141 0 232.5 -53.5t132 -136.5t40.5 -175q0 -90 -36.5 -155.5t-91 -103.5t-103.5 -48v-12q57 -6 127 -42t122 -110t52 -186q0 -102 -46 -196.5t-144.5 -155t-247.5 -60.5h-621zM348 174h363q119 0 201.5 56.5t82.5 187.5q0 127 -83 182t-201 55h-363v-481 zM348 815h316q106 0 185 56.5t79 172.5q0 113 -76 164.5t-188 51.5h-316v-445z" />
<glyph unicode="C" horiz-adv-x="1449" d="M104 725q0 209 77 377t223.5 265t347.5 97q246 0 403.5 -139t208.5 -371h-207q-37 143 -144.5 231.5t-258.5 88.5q-207 0 -317.5 -149.5t-110.5 -399.5t110.5 -399.5t317.5 -149.5q145 0 247.5 80t145.5 207h207q-55 -215 -211 -346t-391 -131q-203 0 -349.5 97 t-222.5 265t-76 377z" />
<glyph unicode="D" horiz-adv-x="1400" d="M141 0v1434h535q193 0 337 -86t224 -248t80 -381q0 -221 -80 -384t-225.5 -249t-337.5 -86h-533zM348 195h293q205 0 328 131t123 393t-122 393t-329 131h-293v-1048z" />
<glyph unicode="E" horiz-adv-x="1163" d="M141 0v1434h906v-189h-691v-430h600v-170h-600v-457h691v-188h-906z" />
<glyph unicode="F" horiz-adv-x="1052" d="M143 0v1434h873v-189h-660v-432l584 4v-172h-584v-645h-213z" />
<glyph unicode="G" horiz-adv-x="1466" d="M102 721q0 190 69 359t213 276.5t359 107.5q242 0 392.5 -132t207.5 -335h-223q-39 131 -132 203t-245 72q-203 0 -314.5 -149.5t-111.5 -405.5q0 -262 117 -409.5t320 -147.5q121 0 208 51t132 139t47 197l2 49h-369v156h572v-752h-164v229h-17q-31 -53 -64.5 -97 t-130 -95t-245.5 -51q-207 0 -347 106.5t-208 274.5t-68 354z" />
<glyph unicode="H" horiz-adv-x="1390" d="M141 0v1434h213v-629h682v629h213v-1434h-213v635h-682v-635h-213z" />
<glyph unicode="I" horiz-adv-x="514" d="M150 0v1434h215v-1434h-215z" />
<glyph unicode="J" horiz-adv-x="722" d="M96 8v154q49 -8 94 -8q74 0 108 27.5t42 65.5t8 97v1090h211v-1145q0 -117 -60.5 -206t-252.5 -89q-97 0 -150 14z" />
<glyph unicode="K" horiz-adv-x="1298" d="M139 0v1434h211v-617h10l545 617h254l-553 -615l584 -819h-244l-471 668l-125 -136v-532h-211z" />
<glyph unicode="L" horiz-adv-x="1085" d="M141 0v1434h215l-2 -1246h654v-188h-867z" />
<glyph unicode="M" horiz-adv-x="1695" d="M141 0v1434h314l391 -1026h6l389 1026h313v-1434h-208v1116h-9l-415 -1116h-148l-416 1116h-8v-1116h-209z" />
<glyph unicode="N" horiz-adv-x="1449" d="M141 0v1434h242l709 -1100h6v1100h211v-1434h-246l-705 1077h-6v-1077h-211z" />
<glyph unicode="O" horiz-adv-x="1499" d="M98 721q0 211 76 380t223.5 266t352.5 97q203 0 349 -96t222 -265t76 -384q0 -213 -76 -379t-222.5 -260t-348.5 -94q-207 0 -353.5 95t-222.5 262t-76 378zM322 723q0 -156 51 -280t147 -194.5t228 -70.5q131 0 227 69.5t147.5 193.5t51.5 282t-51.5 281.5t-147.5 195.5 t-227 72t-227.5 -72t-147.5 -196.5t-51 -280.5z" />
<glyph unicode="P" horiz-adv-x="1198" d="M141 0v1434h502q174 0 286.5 -70t164 -178.5t51.5 -231.5q0 -121 -51.5 -227t-164 -175t-286.5 -69h-295v-483h-207zM348 664h266q138 0 232 65.5t94 224.5q0 160 -94 224.5t-232 64.5h-266v-579z" />
<glyph unicode="Q" horiz-adv-x="1492" d="M98 721q0 211 76 380t223.5 266t352.5 97q203 0 349 -96t222 -265t76 -384q0 -184 -57.5 -335t-168.5 -251l187 -239h-197l-121 153q-129 -61 -290 -61q-207 0 -353.5 95t-222.5 262t-76 378zM322 723q0 -156 51 -280t147 -194.5t228 -70.5q89 0 165 35l-266 342h197 l194 -250q66 74 101 181.5t35 236.5q0 158 -51.5 281.5t-147.5 195.5t-227 72t-227.5 -72t-147.5 -196.5t-51 -280.5z" />
<glyph unicode="R" horiz-adv-x="1241" d="M141 0v1434h502q174 0 286.5 -64.5t164 -165t51.5 -213.5q0 -147 -84 -264t-258 -156l360 -571h-229l-346 555h-236v-555h-211zM352 733h262q137 0 231.5 58.5t94.5 199.5q0 139 -94 196.5t-232 57.5h-262v-512z" />
<glyph unicode="S" horiz-adv-x="1230" d="M100 457v10h234v-10q0 -66 30.5 -130.5t98 -108.5t170.5 -44q125 0 203.5 63.5t78.5 172.5q0 90 -60 143t-153 72l-196 39q-129 27 -249 109.5t-120 277.5q0 125 60.5 219t169 144t247.5 50q160 0 275 -63.5t173 -164.5t58 -212v-8h-233v6q0 55 -26.5 114.5t-89 101.5 t-163.5 42q-119 0 -187.5 -64.5t-68.5 -160.5q0 -84 58.5 -137.5t152.5 -71.5l182 -37q158 -33 276 -121t118 -272q0 -127 -64.5 -225.5t-180.5 -152.5t-265 -54q-168 0 -288 68.5t-180.5 177t-60.5 227.5z" />
<glyph unicode="T" horiz-adv-x="1208" d="M86 1245v189h1034v-189h-411v-1245h-211v1245h-412z" />
<glyph unicode="U" horiz-adv-x="1400" d="M127 631v803h209v-795q0 -174 74.5 -314.5t291.5 -140.5q211 0 286 139.5t75 315.5v795h211v-803q0 -317 -152.5 -483t-419.5 -166q-272 0 -423.5 165.5t-151.5 483.5z" />
<glyph unicode="V" horiz-adv-x="1312" d="M27 1434h215l409 -1215h13l409 1215h213l-485 -1434h-287z" />
<glyph unicode="W" horiz-adv-x="2035" d="M29 1434h211l297 -1170h12l373 1170h190l373 -1170h12l299 1170h211l-379 -1434h-270l-334 1059h-12l-336 -1059h-270z" />
<glyph unicode="X" horiz-adv-x="1359" d="M74 0l473 717l-471 717h233l369 -568h12l365 568h235l-473 -717l475 -717h-237l-365 567h-12l-369 -567h-235z" />
<glyph unicode="Y" horiz-adv-x="1277" d="M63 1434h228l340 -695h14l338 695h227l-467 -922v-512l-211 -2v514z" />
<glyph unicode="Z" horiz-adv-x="1261" d="M102 0v195l777 1040v4h-777v195h1033v-195l-779 -1040v-4h779v-195h-1033z" />
<glyph unicode="[" horiz-adv-x="925" d="M166 -381v2060h604v-168h-432v-1724h432v-168h-604z" />
<glyph unicode="\" horiz-adv-x="1062" d="M53 1634h205l709 -1978h-203z" />
<glyph unicode="]" horiz-adv-x="911" d="M143 -213h432v1724h-432v168h605v-2060h-605v168z" />
<glyph unicode="^" horiz-adv-x="860" d="M51 1161v25l250 366h246l250 -366v-25h-187l-182 271h-8l-182 -271h-187z" />
<glyph unicode="_" horiz-adv-x="1441" d="M223 0v172h998v-172h-998z" />
<glyph unicode="`" horiz-adv-x="544" d="M64 1647h217l204 -377h-170z" />
<glyph unicode="a" horiz-adv-x="1267" d="M88 545q0 164 53.5 291t154.5 199.5t243 72.5q141 0 225 -65.5t127 -151.5h14v188h213v-1079h-213v209h-14q-45 -90 -131 -156.5t-228 -66.5q-139 0 -239 71.5t-152.5 198.5t-52.5 289zM305 549q0 -164 75 -275.5t224 -111.5q146 0 222.5 111.5t76.5 273.5t-76.5 272.5 t-222.5 110.5q-147 0 -223 -110.5t-76 -270.5z" />
<glyph unicode="b" horiz-adv-x="1263" d="M139 0v1536h215v-645h15q43 86 127 151.5t225 65.5t242.5 -72.5t153.5 -199.5t52 -291q0 -162 -52 -289t-152.5 -198.5t-239.5 -71.5t-225 66.5t-131 156.5h-15v-209h-215zM356 545q0 -162 77 -272.5t222 -110.5q148 0 222.5 110.5t74.5 274.5q0 162 -73.5 271.5 t-223.5 109.5q-145 0 -222 -110.5t-77 -272.5z" />
<glyph unicode="c" horiz-adv-x="1177" d="M98 547q0 145 56.5 273t171 208t284.5 80q211 0 334 -122t148 -302h-207q-18 111 -87 179.5t-186 68.5q-152 0 -227.5 -110.5t-75.5 -274.5t76 -274.5t227 -110.5q117 0 185.5 67.5t87.5 178.5h207q-25 -180 -148 -302t-334 -122q-170 0 -284.5 79.5t-171 207.5 t-56.5 276z" />
<glyph unicode="d" horiz-adv-x="1263" d="M94 545q0 164 52.5 291t153.5 199.5t243 72.5q141 0 225 -65.5t127 -151.5h14v645h215v-1536h-215v209h-14q-45 -90 -131 -156.5t-225 -66.5q-140 0 -240 71.5t-152.5 198.5t-52.5 289zM311 547q0 -164 75 -274.5t222 -110.5q146 0 222.5 110.5t76.5 272.5t-76.5 272.5 t-222.5 110.5q-150 0 -223.5 -109.5t-73.5 -271.5z" />
<glyph unicode="e" horiz-adv-x="1189" d="M98 547q0 145 55.5 273t171 208t283.5 80q221 0 352.5 -144.5t131.5 -418.5v-60h-787v-14q0 -82 37 -153.5t104.5 -115.5t155.5 -44q96 0 166 48t100 130h209q-41 -152 -161.5 -251t-309.5 -99q-168 0 -282.5 79.5t-170 207.5t-55.5 274zM311 631h574q-8 166 -83 240.5 t-198 74.5q-131 0 -210 -86t-83 -229z" />
<glyph unicode="f" horiz-adv-x="774" d="M90 911v168h143v131q0 301 308 301q45 0 91 -5t66 -11v-145q-45 10 -102 10q-70 0 -102.5 -26.5t-40 -64.5t-7.5 -98v-92h252v-168h-252v-911h-210l-3 911h-143z" />
<glyph unicode="g" horiz-adv-x="1269" d="M98 563q0 162 54.5 286t155 192.5t235.5 68.5q139 0 229 -70.5t127 -158.5h14v198h215v-1022q0 -111 -44 -223.5t-154.5 -193t-294.5 -80.5q-66 0 -100.5 8t-79.5 24v175q27 -8 70.5 -15.5t86.5 -7.5q156 0 228.5 87t72.5 226v179h-16q-39 -88 -130 -154t-226 -66 q-133 0 -233.5 69t-155 192.5t-54.5 285.5zM317 567q0 -154 77 -264t220 -110q144 0 220.5 110.5t76.5 263.5q0 147 -75.5 256t-221.5 109q-145 0 -221 -107.5t-76 -257.5z" />
<glyph unicode="h" horiz-adv-x="1245" d="M141 0v1528h213v-633h17q39 90 127 151.5t217 61.5q139 0 229 -66.5t131 -170t41 -220.5v-651h-211v621q0 147 -74.5 225t-199.5 78q-123 0 -200 -82t-77 -221v-621h-213z" />
<glyph unicode="i" horiz-adv-x="534" d="M137 1405q0 55 37 92t92 37t92 -38t37 -91t-37 -91t-92 -38t-92 37t-37 92zM162 0v1079h211v-1079h-211z" />
<glyph unicode="j" horiz-adv-x="538" d="M-84 -285q35 -8 94 -8q74 0 108 26.5t42 64.5t8 98v1204h211l2 -1260q0 -295 -309 -295q-82 1 -156 19v151zM154 1405q0 55 35.5 92t91.5 37q55 0 93 -38t38 -91t-38 -91t-93 -38q-56 0 -91.5 37t-35.5 92z" />
<glyph unicode="k" horiz-adv-x="1087" d="M150 0v1528h215v-856h8l383 407h237l-448 -487l467 -592h-242l-397 524h-8v-524h-215z" />
<glyph unicode="l" horiz-adv-x="661" d="M150 305l2 1231h210v-1194q0 -76 7.5 -112.5t40 -59.5t104.5 -23q39 0 70 7v-152q-86 -10 -144 -10q-131 0 -194.5 41t-79.5 105.5t-16 166.5z" />
<glyph unicode="m" horiz-adv-x="1935" d="M141 0v1079h211v-190h17q6 25 40.5 76t106.5 97t180 46q117 0 194 -53.5t113.5 -114.5t36.5 -78h17q10 29 46 85.5t116.5 108.5t201.5 52q133 0 220.5 -68.5t126 -172t38.5 -214.5v-653h-211v633q0 139 -72.5 212t-179.5 73q-111 0 -187.5 -75t-76.5 -210v-633h-211v633 q0 139 -72.5 212t-179.5 73q-111 0 -187.5 -75t-76.5 -210v-633h-211z" />
<glyph unicode="n" horiz-adv-x="1245" d="M141 0v1079h213v-184h17q39 90 127 151.5t217 61.5q139 0 229 -66.5t131 -170t41 -220.5v-651h-211v621q0 147 -74.5 225t-197.5 78q-129 0 -204 -84t-75 -219v-621h-213z" />
<glyph unicode="o" horiz-adv-x="1212" d="M98 545q0 150 56.5 277.5t171 206.5t280.5 79t280.5 -79t172 -207t57.5 -275t-57.5 -275.5t-172 -207t-280.5 -78.5t-280.5 77.5t-171 205.5t-56.5 276zM307 549q0 -166 79 -276.5t220 -110.5q142 0 220.5 110.5t78.5 276.5t-78.5 274.5t-220.5 108.5q-139 0 -219 -109.5 t-80 -273.5z" />
<glyph unicode="p" horiz-adv-x="1271" d="M139 -420v1499h215v-188h15q43 86 127 151.5t225 65.5t242.5 -72.5t153.5 -199.5t52 -291q0 -162 -52 -289t-152.5 -198.5t-239.5 -71.5t-225 66.5t-131 156.5h-15v-629h-215zM356 545q0 -162 77 -272.5t222 -110.5q148 0 222.5 110.5t74.5 274.5q0 162 -73.5 271.5 t-223.5 109.5q-145 0 -222 -110.5t-77 -272.5z" />
<glyph unicode="q" horiz-adv-x="1271" d="M102 545q0 164 52.5 291t154 199.5t242.5 72.5q143 0 227 -66.5t125 -150.5h17v188h213v-1499h-213v629h-17q-43 -88 -129 -155.5t-227 -67.5q-139 0 -239.5 71.5t-153 198.5t-52.5 289zM319 547q0 -164 75 -274.5t224 -110.5q146 0 221.5 110.5t75.5 272.5t-75.5 272.5 t-221.5 110.5q-150 0 -224.5 -109.5t-74.5 -271.5z" />
<glyph unicode="r" horiz-adv-x="745" d="M139 0v1079h211v-172h12q27 72 95.5 122t177.5 50q29 0 49.5 -2t40.5 -10l-8 -201q-55 16 -115 17q-121 0 -186.5 -69t-65.5 -226v-588h-211z" />
<glyph unicode="s" horiz-adv-x="1013" d="M92 344v10h209v-8q0 -74 59.5 -132t165.5 -58q88 0 145.5 43t57.5 116q0 63 -45 99.5t-115 48.5l-135 20q-131 20 -223 93t-92 212q0 152 108.5 236t280.5 84q125 0 217 -46t139 -122t47 -164v-8h-209v4q0 61 -49 118.5t-151 57.5q-86 0 -139.5 -43t-53.5 -112 q0 -59 45 -96.5t113 -47.5l147 -26q135 -25 226.5 -96.5t91.5 -209.5q0 -98 -53.5 -173.5t-147.5 -116.5t-211 -41q-133 0 -229 51t-147.5 134t-51.5 173z" />
<glyph unicode="t" horiz-adv-x="823" d="M63 911v168h195v355h211v-355h252v-168h-252v-577q0 -76 7 -111t39 -55.5t106 -20.5q51 0 100 13v-150q-14 -6 -67.5 -12t-106.5 -6q-129 0 -192.5 38t-81 98t-17.5 159l2 624h-195z" />
<glyph unicode="u" d="M141 436v643h211v-612q0 -143 72 -223t190 -80q125 0 197 85t72 218v612h213v-1079h-213v195h-15q-41 -90 -127 -151.5t-209 -61.5q-139 0 -226 66.5t-126 170t-39 217.5z" />
<glyph unicode="v" horiz-adv-x="1134" d="M57 1079h203l303 -860h10l301 860h203l-381 -1079h-260z" />
<glyph unicode="w" horiz-adv-x="1677" d="M59 1079h199l221 -848h10l256 848h189l260 -848h10l215 848h201l-291 -1079h-264l-217 743h-14l-218 -743h-264z" />
<glyph unicode="x" horiz-adv-x="1150" d="M63 1079h238l252 -415h6l252 415h236l-349 -538l346 -541h-235l-250 414h-6l-250 -414h-237l346 541z" />
<glyph unicode="y" horiz-adv-x="1105" d="M53 1079h219l279 -800h12l293 800h217l-493 -1231q-33 -77 -64 -129.5t-103.5 -100.5t-189.5 -48q-61 0 -131 16v154q49 -8 86 -8q68 0 109 24.5t64.5 64.5t54.5 113l45 109z" />
<glyph unicode="z" horiz-adv-x="1019" d="M106 0v170l592 735v4h-561v174h795v-170l-594 -735v-6h594v-172h-826z" />
<glyph unicode="{" horiz-adv-x="929" d="M186 573v107q86 0 120 12.5t42 50t8 136.5v497q0 193 78 266.5t232 73.5h151v-149h-135q-84 0 -112.5 -35t-28.5 -125v-475q0 -147 -23.5 -216t-93.5 -77v-23q70 -10 93.5 -78.5t23.5 -213.5v-476q0 -90 28.5 -124.5t112.5 -34.5h135v-152h-151q-154 0 -232 75t-78 267 v498q0 98 -8 135t-41 49t-121 12z" />
<glyph unicode="|" horiz-adv-x="602" d="M213 -498v2444h176v-2444h-176z" />
<glyph unicode="}" horiz-adv-x="952" d="M221 -311h135q82 0 112 34.5t30 124.5v476q0 145 23.5 213.5t92.5 78.5v23q-70 8 -93 76.5t-23 216.5v475q0 90 -30 125t-112 35h-135v149h152q154 0 231.5 -73.5t77.5 -266.5v-497q0 -98 8 -136t42 -50.5t120 -12.5v-107q-88 0 -121 -12t-41 -49t-8 -135v-498 q0 -193 -78 -267.5t-231 -74.5h-152v152z" />
<glyph unicode="~" horiz-adv-x="1181" d="M201 664q2 51 25.5 106t77.5 93t136 38q49 0 86 -12t88 -39q43 -20 70 -30.5t57 -10.5q53 0 78 28.5t29 63.5h131q-2 -88 -58.5 -161.5t-177.5 -73.5q-51 0 -90 13t-88 38q-37 18 -64.5 28.5t-58.5 10.5q-55 0 -79.5 -28t-30.5 -64h-131z" />
<glyph unicode="&#xa1;" horiz-adv-x="499" d="M135 907q0 53 36 90t91 37q53 0 90 -36.5t37 -90.5q0 -53 -37 -89t-90 -36q-55 0 -91 36t-36 89zM150 -307l36 913h150l39 -913v-205h-225v205z" />
<glyph unicode="&#xa2;" horiz-adv-x="1228" d="M98 547q0 137 50.5 260t152.5 204t254 95v139h80v-137q199 -8 315.5 -129t141.5 -295h-207q-16 104 -80 172t-170 76v-770q108 8 170.5 74.5t79.5 171.5h207q-25 -174 -140.5 -295t-316.5 -129v-123h-80v125q-152 14 -254 96t-152.5 204t-50.5 261zM309 547 q0 -148 61.5 -253.5t184.5 -127.5v762q-123 -23 -184.5 -128.5t-61.5 -252.5z" />
<glyph unicode="&#xa3;" horiz-adv-x="1239" d="M88 0v184h45q59 0 119.5 32t99.5 93.5t39 145.5q0 49 -12 92h-270v125h210q-14 23 -47 67q-63 92 -96 161t-33 163q0 100 47.5 191.5t153 150.5t272.5 59q211 0 318.5 -88t137.5 -183t30 -157v-28h-232v22q0 47 -19.5 105.5t-75.5 104.5t-157 46q-121 0 -180 -66.5 t-59 -152.5q0 -59 24.5 -109.5t73.5 -121.5q25 -37 51.5 -80t42.5 -84h308v-125h-281q2 -10 2 -33q0 -104 -43 -174t-92 -103.5t-82 -43.5v-11h752v-182h-1047z" />
<glyph unicode="&#xa4;" horiz-adv-x="1230" d="M119 315l127 138q-92 121 -92 276q0 156 100 283l-127 135l115 104l127 -137q113 74 245 74q131 0 246 -72l127 137l115 -106l-127 -135q102 -129 102 -283q0 -150 -92 -278l125 -138l-115 -106l-127 137q-117 -80 -254 -80q-139 0 -254 82l-127 -137zM315 729 q0 -84 41 -153.5t108.5 -109.5t147.5 -40q84 0 153 43t108.5 112.5t39.5 147.5q0 82 -41 149.5t-111.5 106.5t-152.5 39q-80 0 -147.5 -40t-106.5 -107.5t-39 -147.5z" />
<glyph unicode="&#xa5;" horiz-adv-x="1296" d="M72 1415v19h219l340 -695h14l338 695h219v-19l-416 -819h240v-121h-283v-117h283v-120h-283v-238l-211 -2v240h-282v120h282v117h-282v121h239z" />
<glyph unicode="&#xa6;" horiz-adv-x="602" d="M213 -498v1020h176v-1020h-176zM213 858v1090h176v-1090h-176z" />
<glyph unicode="&#xa7;" horiz-adv-x="1136" d="M102 762q0 152 154 213v6q-94 63 -94 184q0 139 108.5 218t284.5 79q193 0 301.5 -92t122.5 -225h-215q-12 63 -59.5 111.5t-149.5 48.5q-92 0 -143.5 -40t-51.5 -98q0 -51 44.5 -83.5t111.5 -45.5l154 -26q156 -25 264 -101.5t108 -210.5q0 -74 -38.5 -130t-112.5 -93 v-4q43 -27 67.5 -74t24.5 -106q0 -92 -52 -163t-145.5 -109.5t-212.5 -38.5q-139 0 -239.5 50t-153.5 131t-57 167h213q2 -37 26.5 -78t77 -70.5t131.5 -29.5q86 0 143.5 36.5t57.5 100.5q0 57 -47 90t-111 41l-137 26q-139 23 -257 96.5t-118 219.5zM301 762q0 -59 48 -95 t130 -49l236 -45q49 -4 81.5 35t32.5 90q0 59 -57 101.5t-143 52.5l-174 33q-68 4 -111 -31t-43 -92z" />
<glyph unicode="&#xa8;" horiz-adv-x="821" d="M70 1405q0 55 37 92t92 37t92 -38t37 -91t-37 -91t-92 -38t-92 37t-37 92zM510 1405q0 55 37 92t92 37t92 -38t37 -91t-37 -91t-92 -38t-92 37t-37 92z" />
<glyph unicode="&#xa9;" horiz-adv-x="1656" d="M88 719q0 174 79 344t248 282.5t421 112.5q256 0 420.5 -113.5t238.5 -283.5t74 -342q0 -168 -75 -338t-239.5 -287t-418.5 -117q-252 0 -421 114t-248 285t-79 343zM227 721q0 -141 64.5 -280.5t201 -231.5t341.5 -92q206 0 341.5 95t196 233.5t60.5 275.5 q0 139 -60.5 276.5t-196 230.5t-341.5 93q-205 0 -341.5 -91t-201 -229.5t-64.5 -279.5zM422 717q0 111 49 208t142.5 157.5t222.5 60.5q156 0 260 -84t139 -215l-133 -23q-25 90 -93.5 142.5t-168.5 52.5q-129 0 -205 -85t-76 -212q0 -129 76 -214t207 -85q100 0 167.5 52 t92.5 144l133 -22q-31 -129 -134.5 -215t-260.5 -86q-131 0 -226.5 59.5t-143.5 156.5t-48 208z" />
<glyph unicode="&#xaa;" horiz-adv-x="325" d="M8 938q0 68 32 108.5t83 40.5q57 0 80 -47h4v41h92v-288h-92v45h-4q-8 -16 -27.5 -33t-52.5 -17q-53 0 -84 41t-31 109zM98 938q0 -31 13.5 -54.5t44.5 -23.5q28 0 41.5 23.5t13.5 54.5q0 29 -13.5 53.5t-41.5 24.5q-31 0 -44.5 -23.5t-13.5 -54.5z" />
<glyph unicode="&#xab;" horiz-adv-x="1347" d="M78 643l407 436h213l-399 -436l399 -434h-213zM651 643l406 436h213l-400 -436l400 -434h-213z" />
<glyph unicode="&#xac;" horiz-adv-x="1341" d="M164 913v172h1014v-534h-170v362h-844z" />
<glyph unicode="&#xad;" horiz-adv-x="1228" d="M240 553v172h747v-172h-747z" />
<glyph unicode="&#xae;" horiz-adv-x="696" d="M92 1178q0 59 27.5 118.5t85 98.5t145.5 39t145.5 -40t83 -98.5t25.5 -117.5q0 -57 -25.5 -117t-83 -99.5t-145.5 -39.5t-145.5 38.5t-85 98t-27.5 119.5zM158 1180q0 -74 48 -133.5t144 -59.5q99 0 146 60.5t47 132.5t-47 131t-146 59q-96 0 -144 -59.5t-48 -130.5z M262 1053v252h111q41 0 59.5 -22.5t18.5 -55.5q0 -59 -45 -74l53 -96v-4h-60l-47 96h-37v-96h-53zM315 1188h45q37 0 37 35t-37 34h-45v-69z" />
<glyph unicode="&#xaf;" horiz-adv-x="751" d="M62 1317v104h629v-104h-629z" />
<glyph unicode="&#xb0;" horiz-adv-x="630" d="M113 1577q0 84 60 144.5t144 60.5q86 0 146.5 -60.5t60.5 -144.5t-60.5 -145.5t-146.5 -61.5q-84 0 -144 61.5t-60 145.5zM217 1577q0 -41 29.5 -71.5t70.5 -30.5q43 0 73 30.5t30 71.5q0 43 -30 71.5t-73 28.5q-41 0 -70.5 -28.5t-29.5 -71.5z" />
<glyph unicode="&#xb1;" horiz-adv-x="1241" d="M213 0v143h827l-2 -143h-825zM213 647v184h322v320h184v-320h321v-184h-321v-321h-184v321h-322z" />
<glyph unicode="&#xb2;" horiz-adv-x="626" d="M53 778v121l142 133q35 29 32 27q106 88 156.5 145.5t50.5 124.5q0 49 -28.5 83t-90.5 34q-76 0 -102.5 -46t-26.5 -106h-129q0 117 69 192t189 75q117 0 182.5 -65.5t65.5 -162.5q0 -90 -46 -151.5t-132 -137.5l-35 -30l-121 -111v-6h344v-119h-520z" />
<glyph unicode="&#xb3;" horiz-adv-x="653" d="M53 991h135q12 -47 51.5 -73.5t92.5 -26.5q66 0 100.5 33.5t34.5 83.5q0 53 -40 83.5t-95 30.5h-70v109h64q53 0 93 26.5t40 79.5q0 51 -37 82t-94 31q-55 0 -87 -26.5t-40 -69.5h-133q14 88 77.5 148.5t184.5 60.5q133 0 197.5 -66.5t64.5 -155.5q0 -55 -25.5 -93 t-55.5 -56t-38 -18v-3q2 0 33 -12t62.5 -56t31.5 -106q0 -88 -66.5 -158.5t-201.5 -70.5q-125 0 -199 64.5t-80 158.5z" />
<glyph unicode="&#xb4;" horiz-adv-x="544" d="M63 1270l203 377h219l-252 -377h-170z" />
<glyph unicode="&#xb5;" horiz-adv-x="1333" d="M129 -432l2 1511h211v-630q0 -113 37 -201t174 -88q123 0 192.5 95t69.5 228v596h215v-737q0 -74 7 -111.5t40 -60.5t105 -23q41 0 71 7v-152q-82 -10 -143 -10q-143 0 -204.5 52t-76.5 155h-16q-27 -63 -95.5 -137t-205.5 -74q-59 0 -103 18.5t-90 52.5l-4 -6 q18 -29 22.5 -101.5t4.5 -268.5v-115h-213z" />
<glyph unicode="&#xb6;" horiz-adv-x="1128" d="M45 1053q0 104 45 190t134 138.5t214 52.5h549v-1434h-137v1249h-143v-1249h-138v682h-131q-190 0 -291.5 104.5t-101.5 266.5z" />
<glyph unicode="&#xb7;" horiz-adv-x="598" d="M166 748q0 55 38 93t95 38t95 -38t38 -93t-38 -94t-95 -39t-95 38.5t-38 94.5z" />
<glyph unicode="&#xb8;" horiz-adv-x="512" d="M61 -203l62 203h119l-37 -109h45q98 0 149.5 -52t51.5 -132q0 -90 -62.5 -153.5t-181.5 -63.5q-68 0 -127 23l2 114q66 -16 125 -16q65 0 99 27.5t34 70.5q0 47 -33 64.5t-71 17.5h-175v6z" />
<glyph unicode="&#xb9;" horiz-adv-x="544" d="M53 1257v156l162 148h129v-648h148v-118h-437v118h162v488h-4z" />
<glyph unicode="&#xba;" horiz-adv-x="333" d="M27 940q0 63 36.5 108.5t104.5 45.5t105.5 -45t37.5 -109q0 -61 -36.5 -106.5t-106.5 -45.5q-68 0 -104.5 44.5t-36.5 107.5zM106 940q0 -35 15.5 -60.5t46.5 -25.5q29 0 45 25.5t16 60.5q0 37 -16 61.5t-45 24.5q-31 0 -46.5 -24.5t-15.5 -61.5z" />
<glyph unicode="&#xbb;" horiz-adv-x="1347" d="M78 209l399 434l-399 436h213l407 -436l-407 -434h-213zM649 209l399 434l-399 436h213l407 -436l-407 -434h-213z" />
<glyph unicode="&#xbc;" horiz-adv-x="1681" d="M78 1118v178l155 138h146v-586h139v-131h-438v131h156v407h-5zM358 0v25l842 1409h182v-25l-845 -1409h-179zM1055 170v111l274 436h189v-434h86v-113h-86v-170h-148v170h-315zM1169 285h201v303z" />
<glyph unicode="&#xbd;" horiz-adv-x="1755" d="M78 1118v178l155 138h146v-586h139v-131h-438v131h156v407h-5zM406 0v25l841 1409h180v-25l-841 -1409h-180zM1180 0v127l118 109q12 8 82 59t108 104.5t38 104.5q0 43 -23.5 70.5t-72.5 27.5q-63 0 -86 -40t-23 -87h-137q0 119 68.5 188.5t181.5 69.5q111 0 172 -62.5 t61 -154.5q0 -66 -28.5 -117t-58.5 -78.5t-107 -95.5l-99 -90v-4h301v-131h-495z" />
<glyph unicode="&#xbe;" horiz-adv-x="1734" d="M78 911h149q10 -41 42 -63.5t79 -22.5q57 0 86 30t29 71q0 45 -32 70.5t-81 25.5h-63v113h57q45 0 77 20.5t32 67.5q0 43 -30 68.5t-77 25.5q-45 0 -73.5 -21.5t-34.5 -56.5h-146q14 88 74.5 146.5t181.5 58.5q127 0 189.5 -63.5t62.5 -147.5q0 -53 -23.5 -88t-50 -51.5 t-34.5 -16.5v-6q8 0 37.5 -17.5t54 -53t24.5 -91.5q0 -86 -64.5 -151.5t-197.5 -65.5q-121 0 -191.5 59.5t-76.5 159.5zM406 0v25l841 1409h180v-25l-841 -1409h-180zM1108 170v111l272 436h189v-434h86v-113h-86v-170h-148v170h-313zM1223 285h200v303z" />
<glyph unicode="&#xbf;" horiz-adv-x="1181" d="M117 -92q0 84 31.5 153.5t75.5 119.5t116 116q86 80 127 135t41 123v16h211v-16q0 -96 -51.5 -169t-151.5 -167q-94 -90 -140 -153.5t-46 -147.5q0 -109 72.5 -168t187.5 -59q143 0 207.5 86t64.5 190v6h215v-6q0 -139 -60.5 -246.5t-170 -167t-256.5 -59.5 q-141 0 -249 53.5t-166 147.5t-58 213zM485 850q0 53 36 90t91 37q54 0 89.5 -37t35.5 -90t-35.5 -89t-89.5 -36q-55 0 -91 36t-36 89z" />
<glyph unicode="&#xc0;" horiz-adv-x="1388" d="M66 0l530 1434h201l532 -1434h-215l-141 395h-555l-137 -395h-215zM353 1960h217l204 -377h-170zM477 563h436l-215 602h-10z" />
<glyph unicode="&#xc1;" horiz-adv-x="1388" d="M66 0l530 1434h201l532 -1434h-215l-141 395h-555l-137 -395h-215zM477 563h436l-215 602h-10zM614 1583l203 377h219l-252 -377h-170z" />
<glyph unicode="&#xc2;" horiz-adv-x="1388" d="M66 0l530 1434h201l532 -1434h-215l-141 395h-555l-137 -395h-215zM334 1568l276 308h172l277 -308h-205l-156 172h-8l-156 -172h-200zM477 563h436l-215 602h-10z" />
<glyph unicode="&#xc3;" horiz-adv-x="1388" d="M66 0l530 1434h201l532 -1434h-215l-141 395h-555l-137 -395h-215zM389 1622q-6 96 38 167.5t145 71.5q41 0 74.5 -15t76.5 -44q6 -4 25.5 -16.5t36 -18.5t30.5 -6q35 0 50.5 28.5t11.5 71.5h119q8 -96 -35 -166.5t-146 -70.5q-41 0 -72.5 14t-78.5 43q-31 20 -51.5 30.5 t-40.5 10.5q-37 0 -51.5 -28.5t-10.5 -71.5h-121zM477 563h436l-215 602h-10z" />
<glyph unicode="&#xc4;" horiz-adv-x="1388" d="M66 0l530 1434h201l532 -1434h-215l-141 395h-555l-137 -395h-215zM353 1759q0 55 37 92t92 37t92 -38t37 -91t-37 -91t-92 -38t-92 37t-37 92zM477 563h436l-215 602h-10zM793 1759q0 55 37 92t92 37t92 -38t37 -91t-37 -91t-92 -38t-92 37t-37 92z" />
<glyph unicode="&#xc5;" horiz-adv-x="1388" d="M66 0l530 1434h201l532 -1434h-215l-141 395h-555l-137 -395h-215zM477 563h436l-215 602h-10zM506 1788q0 78 54 132t132 54t133.5 -55.5t55.5 -130.5q0 -76 -56.5 -132.5t-132.5 -56.5t-131 55.5t-55 133.5zM600 1788q0 -39 26.5 -66t65.5 -27t65.5 27t26.5 66 t-26.5 65.5t-65.5 26.5t-65.5 -26.5t-26.5 -65.5z" />
<glyph unicode="&#xc6;" horiz-adv-x="1964" d="M31 0l749 1434h1067v-189h-690v-430h600v-170h-600v-457h690v-188h-905v395h-465l-209 -395h-237zM565 563h377v682h-18z" />
<glyph unicode="&#xc7;" horiz-adv-x="1449" d="M104 725q0 209 77 377t223.5 265t347.5 97q246 0 403.5 -139t208.5 -371h-207q-37 143 -144.5 231.5t-258.5 88.5q-207 0 -317.5 -149.5t-110.5 -399.5t110.5 -399.5t317.5 -149.5q145 0 247.5 80t145.5 207h207q-51 -201 -192.5 -330t-354.5 -145l-31 -92h45 q98 0 149.5 -52.5t51.5 -132.5q0 -90 -62.5 -153.5t-181.5 -63.5q-68 0 -127 23l2 114q66 -16 125 -16q66 0 99.5 27.5t33.5 70.5q0 47 -32.5 64.5t-71.5 17.5h-174v6l57 187q-184 14 -316 114.5t-201 262t-69 360.5z" />
<glyph unicode="&#xc8;" horiz-adv-x="1163" d="M141 0v1434h906v-189h-691v-430h600v-170h-600v-457h691v-188h-906zM250 1960h217l204 -377h-170z" />
<glyph unicode="&#xc9;" horiz-adv-x="1163" d="M141 0v1434h906v-189h-691v-430h600v-170h-600v-457h691v-188h-906zM512 1583l203 377h219l-252 -377h-170z" />
<glyph unicode="&#xca;" horiz-adv-x="1163" d="M141 0v1434h906v-189h-691v-430h600v-170h-600v-457h691v-188h-906zM232 1568l276 308h172l277 -308h-205l-156 172h-8l-156 -172h-200z" />
<glyph unicode="&#xcb;" horiz-adv-x="1163" d="M141 0v1434h906v-189h-691v-430h600v-170h-600v-457h691v-188h-906zM250 1759q0 55 37 92t92 37t92 -38t37 -91t-37 -91t-92 -38t-92 37t-37 92zM690 1759q0 55 37 92t92 37t92 -38t37 -91t-37 -91t-92 -38t-92 37t-37 92z" />
<glyph unicode="&#xcc;" horiz-adv-x="514" d="M-83 1960h217l204 -377h-170zM150 0v1434h215v-1434h-215z" />
<glyph unicode="&#xcd;" horiz-adv-x="514" d="M150 0v1434h215v-1434h-215zM178 1583l203 377h219l-252 -377h-170z" />
<glyph unicode="&#xce;" horiz-adv-x="514" d="M-102 1568l276 308h172l277 -308h-205l-156 172h-8l-156 -172h-200zM150 0v1434h215v-1434h-215z" />
<glyph unicode="&#xcf;" horiz-adv-x="514" d="M-84 1759q0 55 37 92t92 37t92 -38t37 -91t-37 -91t-92 -38t-92 37t-37 92zM150 0v1434h215v-1434h-215zM356 1759q0 55 37 92t92 37t92 -38t37 -91t-37 -91t-92 -38t-92 37t-37 92z" />
<glyph unicode="&#xd0;" horiz-adv-x="1458" d="M88 659v146h111v629h479q215 0 371.5 -84t240.5 -245t84 -388q0 -229 -84 -390t-241.5 -245t-372.5 -84h-477v661h-111zM406 193h237q117 0 224.5 29.5t195.5 146t88 348.5q0 233 -88 349t-195.5 146.5t-224.5 30.5h-237v-438h253v-146h-253v-466z" />
<glyph unicode="&#xd1;" horiz-adv-x="1449" d="M141 0v1434h242l709 -1100h6v1100h211v-1434h-246l-705 1077h-6v-1077h-211zM421 1622q-6 96 38 167.5t145 71.5q41 0 74.5 -15t76.5 -44q6 -4 25.5 -16.5t36 -18.5t30.5 -6q35 0 50.5 28.5t11.5 71.5h119q8 -96 -35 -166.5t-146 -70.5q-41 0 -72.5 14t-78.5 43 q-31 20 -51.5 30.5t-40.5 10.5q-37 0 -51.5 -28.5t-10.5 -71.5h-121z" />
<glyph unicode="&#xd2;" horiz-adv-x="1499" d="M98 721q0 211 76 380t223.5 266t352.5 97q203 0 349 -96t222 -265t76 -384q0 -213 -76 -379t-222.5 -260t-348.5 -94q-207 0 -353.5 95t-222.5 262t-76 378zM322 723q0 -156 51 -280t147 -194.5t228 -70.5q131 0 227 69.5t147.5 193.5t51.5 282t-51.5 281.5t-147.5 195.5 t-227 72t-227.5 -72t-147.5 -196.5t-51 -280.5zM408 1960h217l204 -377h-170z" />
<glyph unicode="&#xd3;" horiz-adv-x="1499" d="M98 721q0 211 76 380t223.5 266t352.5 97q203 0 349 -96t222 -265t76 -384q0 -213 -76 -379t-222.5 -260t-348.5 -94q-207 0 -353.5 95t-222.5 262t-76 378zM322 723q0 -156 51 -280t147 -194.5t228 -70.5q131 0 227 69.5t147.5 193.5t51.5 282t-51.5 281.5t-147.5 195.5 t-227 72t-227.5 -72t-147.5 -196.5t-51 -280.5zM670 1583l203 377h219l-252 -377h-170z" />
<glyph unicode="&#xd4;" horiz-adv-x="1499" d="M98 721q0 211 76 380t223.5 266t352.5 97q203 0 349 -96t222 -265t76 -384q0 -213 -76 -379t-222.5 -260t-348.5 -94q-207 0 -353.5 95t-222.5 262t-76 378zM322 723q0 -156 51 -280t147 -194.5t228 -70.5q131 0 227 69.5t147.5 193.5t51.5 282t-51.5 281.5t-147.5 195.5 t-227 72t-227.5 -72t-147.5 -196.5t-51 -280.5zM390 1568l276 308h172l277 -308h-205l-156 172h-8l-156 -172h-200z" />
<glyph unicode="&#xd5;" horiz-adv-x="1499" d="M98 721q0 211 76 380t223.5 266t352.5 97q203 0 349 -96t222 -265t76 -384q0 -213 -76 -379t-222.5 -260t-348.5 -94q-207 0 -353.5 95t-222.5 262t-76 378zM322 723q0 -156 51 -280t147 -194.5t228 -70.5q131 0 227 69.5t147.5 193.5t51.5 282t-51.5 281.5t-147.5 195.5 t-227 72t-227.5 -72t-147.5 -196.5t-51 -280.5zM444 1622q-6 96 38 167.5t145 71.5q41 0 74.5 -15t76.5 -44q6 -4 25.5 -16.5t36 -18.5t30.5 -6q35 0 50.5 28.5t11.5 71.5h119q8 -96 -35 -166.5t-146 -70.5q-41 0 -72.5 14t-78.5 43q-31 20 -51.5 30.5t-40.5 10.5 q-37 0 -51.5 -28.5t-10.5 -71.5h-121z" />
<glyph unicode="&#xd6;" horiz-adv-x="1499" d="M98 721q0 211 76 380t223.5 266t352.5 97q203 0 349 -96t222 -265t76 -384q0 -213 -76 -379t-222.5 -260t-348.5 -94q-207 0 -353.5 95t-222.5 262t-76 378zM322 723q0 -156 51 -280t147 -194.5t228 -70.5q131 0 227 69.5t147.5 193.5t51.5 282t-51.5 281.5t-147.5 195.5 t-227 72t-227.5 -72t-147.5 -196.5t-51 -280.5zM408 1759q0 55 37 92t92 37t92 -38t37 -91t-37 -91t-92 -38t-92 37t-37 92zM848 1759q0 55 37 92t92 37t92 -38t37 -91t-37 -91t-92 -38t-92 37t-37 92z" />
<glyph unicode="&#xd7;" horiz-adv-x="1153" d="M219 412l227 227l-227 227l131 131l228 -227l225 225l131 -129l-225 -225l227 -227l-131 -131l-227 227l-228 -227z" />
<glyph unicode="&#xd8;" horiz-adv-x="1521" d="M109 721q0 211 75.5 380t223 266t352.5 97q186 0 325 -82l91 140h198l-157 -246q92 -98 141 -242.5t49 -314.5q0 -213 -76 -379t-222 -260t-349 -94q-182 0 -322 75l-96 -149h-199l162 252q-96 98 -146 242.5t-50 314.5zM334 723q0 -220 94 -367l547 852q-92 63 -215 64 q-133 0 -229.5 -72t-146.5 -196.5t-50 -280.5zM549 236q92 -57 211 -58q131 0 227 69.5t146.5 193.5t50.5 282q0 217 -90 360z" />
<glyph unicode="&#xd9;" horiz-adv-x="1400" d="M127 631v803h209v-795q0 -174 74.5 -314.5t291.5 -140.5q211 0 286 139.5t75 315.5v795h211v-803q0 -317 -152.5 -483t-419.5 -166q-272 0 -423.5 165.5t-151.5 483.5zM361 1960h217l204 -377h-170z" />
<glyph unicode="&#xda;" horiz-adv-x="1400" d="M127 631v803h209v-795q0 -174 74.5 -314.5t291.5 -140.5q211 0 286 139.5t75 315.5v795h211v-803q0 -317 -152.5 -483t-419.5 -166q-272 0 -423.5 165.5t-151.5 483.5zM622 1583l203 377h219l-252 -377h-170z" />
<glyph unicode="&#xdb;" horiz-adv-x="1400" d="M127 631v803h209v-795q0 -174 74.5 -314.5t291.5 -140.5q211 0 286 139.5t75 315.5v795h211v-803q0 -317 -152.5 -483t-419.5 -166q-272 0 -423.5 165.5t-151.5 483.5zM342 1568l276 308h172l277 -308h-205l-156 172h-8l-156 -172h-200z" />
<glyph unicode="&#xdc;" horiz-adv-x="1400" d="M127 631v803h209v-795q0 -174 74.5 -314.5t291.5 -140.5q211 0 286 139.5t75 315.5v795h211v-803q0 -317 -152.5 -483t-419.5 -166q-272 0 -423.5 165.5t-151.5 483.5zM361 1759q0 55 37 92t92 37t92 -38t37 -91t-37 -91t-92 -38t-92 37t-37 92zM801 1759q0 55 37 92 t92 37t92 -38t37 -91t-37 -91t-92 -38t-92 37t-37 92z" />
<glyph unicode="&#xdd;" horiz-adv-x="1277" d="M63 1434h228l340 -695h14l338 695h227l-467 -922v-512l-211 -2v514zM557 1583l203 377h219l-252 -377h-170z" />
<glyph unicode="&#xde;" horiz-adv-x="1220" d="M141 0v1434h207v-242h295q174 0 286.5 -69.5t164 -178t51.5 -229.5q0 -123 -51.5 -229.5t-164 -175t-286.5 -68.5h-295v-242h-207zM348 422h266q138 0 232 66.5t94 226.5q0 158 -94 223.5t-232 65.5h-266v-582z" />
<glyph unicode="&#xdf;" horiz-adv-x="1183" d="M141 -4v995q0 199 99.5 338t345.5 139q160 0 262 -56t148 -144t46 -189q0 -111 -47 -180.5t-102 -100t-76 -30.5v-12q20 0 84 -34t120 -112t56 -204q0 -117 -55 -214.5t-159.5 -153.5t-246.5 -56q-72 0 -127 12v178q37 -8 95 -8q139 0 219 70.5t80 195.5 q0 139 -91.5 196.5t-213.5 57.5h-115v160h121q111 0 186.5 53t75.5 172q0 111 -67.5 168t-180.5 57q-158 0 -202 -87t-44 -197v-1014h-211z" />
<glyph unicode="&#xe0;" horiz-adv-x="1267" d="M88 545q0 164 53.5 291t154.5 199.5t243 72.5q141 0 225 -65.5t127 -151.5h14v188h213v-1079h-213v209h-14q-45 -90 -131 -156.5t-228 -66.5q-139 0 -239 71.5t-152.5 198.5t-52.5 289zM287 1606h217l204 -377h-170zM305 549q0 -164 75 -275.5t224 -111.5 q146 0 222.5 111.5t76.5 273.5t-76.5 272.5t-222.5 110.5q-147 0 -223 -110.5t-76 -270.5z" />
<glyph unicode="&#xe1;" horiz-adv-x="1267" d="M88 545q0 164 53.5 291t154.5 199.5t243 72.5q141 0 225 -65.5t127 -151.5h14v188h213v-1079h-213v209h-14q-45 -90 -131 -156.5t-228 -66.5q-139 0 -239 71.5t-152.5 198.5t-52.5 289zM305 549q0 -164 75 -275.5t224 -111.5q146 0 222.5 111.5t76.5 273.5t-76.5 272.5 t-222.5 110.5q-147 0 -223 -110.5t-76 -270.5zM547 1229l203 377h219l-252 -377h-170z" />
<glyph unicode="&#xe2;" horiz-adv-x="1267" d="M88 545q0 164 53.5 291t154.5 199.5t243 72.5q141 0 225 -65.5t127 -151.5h14v188h213v-1079h-213v209h-14q-45 -90 -131 -156.5t-228 -66.5q-139 0 -239 71.5t-152.5 198.5t-52.5 289zM267 1214l276 308h172l277 -308h-205l-156 172h-8l-156 -172h-200zM305 549 q0 -164 75 -275.5t224 -111.5q146 0 222.5 111.5t76.5 273.5t-76.5 272.5t-222.5 110.5q-147 0 -223 -110.5t-76 -270.5z" />
<glyph unicode="&#xe3;" horiz-adv-x="1267" d="M88 545q0 164 53.5 291t154.5 199.5t243 72.5q141 0 225 -65.5t127 -151.5h14v188h213v-1079h-213v209h-14q-45 -90 -131 -156.5t-228 -66.5q-139 0 -239 71.5t-152.5 198.5t-52.5 289zM305 549q0 -164 75 -275.5t224 -111.5q146 0 222.5 111.5t76.5 273.5t-76.5 272.5 t-222.5 110.5q-147 0 -223 -110.5t-76 -270.5zM323 1268q-6 96 38 167.5t145 71.5q41 0 74.5 -15t76.5 -44q6 -4 25.5 -16.5t36 -18.5t30.5 -6q35 0 50.5 28.5t11.5 71.5h119q8 -96 -35 -166.5t-146 -70.5q-41 0 -72.5 14t-78.5 43q-31 20 -51.5 30.5t-40.5 10.5 q-37 0 -51.5 -28.5t-10.5 -71.5h-121z" />
<glyph unicode="&#xe4;" horiz-adv-x="1267" d="M88 545q0 164 53.5 291t154.5 199.5t243 72.5q141 0 225 -65.5t127 -151.5h14v188h213v-1079h-213v209h-14q-45 -90 -131 -156.5t-228 -66.5q-139 0 -239 71.5t-152.5 198.5t-52.5 289zM285 1405q0 55 37 92t92 37t92 -38t37 -91t-37 -91t-92 -38t-92 37t-37 92zM305 549 q0 -164 75 -275.5t224 -111.5q146 0 222.5 111.5t76.5 273.5t-76.5 272.5t-222.5 110.5q-147 0 -223 -110.5t-76 -270.5zM725 1405q0 55 37 92t92 37t92 -38t37 -91t-37 -91t-92 -38t-92 37t-37 92z" />
<glyph unicode="&#xe5;" horiz-adv-x="1267" d="M88 545q0 164 53.5 291t154.5 199.5t243 72.5q141 0 225 -65.5t127 -151.5h14v188h213v-1079h-213v209h-14q-45 -90 -131 -156.5t-228 -66.5q-139 0 -239 71.5t-152.5 198.5t-52.5 289zM305 549q0 -164 75 -275.5t224 -111.5q146 0 222.5 111.5t76.5 273.5t-76.5 272.5 t-222.5 110.5q-147 0 -223 -110.5t-76 -270.5zM441 1434q0 78 54 132t132 54t133.5 -55.5t55.5 -130.5q0 -76 -56.5 -132.5t-132.5 -56.5t-131 55.5t-55 133.5zM535 1434q0 -39 26.5 -66t65.5 -27t65.5 27t26.5 66t-26.5 65.5t-65.5 26.5t-65.5 -26.5t-26.5 -65.5z" />
<glyph unicode="&#xe6;" horiz-adv-x="1906" d="M100 309q0 174 136.5 241.5t328.5 70.5h246v75q0 84 -52 161t-190 77q-106 0 -167.5 -52.5t-75.5 -129.5h-201q12 84 61.5 163.5t142.5 133t230 53.5t230.5 -56.5t136.5 -164.5h10q57 106 157.5 166.5t235.5 60.5q178 0 285.5 -92t150.5 -220t43 -251v-60h-784v-16 q0 -86 38 -157.5t105.5 -112.5t151.5 -41q96 0 165.5 48t102.5 130h209q-43 -152 -164 -251t-309 -99q-147 0 -253.5 66.5t-164.5 178.5h-12q-53 -119 -165 -182t-253 -63q-172 0 -273.5 89t-101.5 234zM309 317q0 -82 56.5 -127t154.5 -45q90 0 155.5 37t99.5 95.5 t34 123.5v84h-236q-106 0 -185 -30.5t-79 -137.5zM1026 621h576q-6 166 -81 241.5t-198 75.5q-133 0 -212 -87t-85 -230z" />
<glyph unicode="&#xe7;" horiz-adv-x="1177" d="M98 547q0 145 56.5 273t171 208t284.5 80q211 0 334 -122t148 -302h-207q-18 111 -87 179.5t-186 68.5q-152 0 -227.5 -110.5t-75.5 -274.5t76 -274.5t227 -110.5q117 0 185.5 67.5t87.5 178.5h207q-23 -166 -129.5 -285t-290.5 -137l-31 -88h45q98 0 149.5 -52.5 t51.5 -132.5q0 -90 -62.5 -153.5t-181.5 -63.5q-68 0 -127 23l2 114q66 -16 125 -16q66 0 99.5 27.5t33.5 70.5q0 47 -32.5 64.5t-71.5 17.5h-174v6l55 183q-150 14 -252 96t-152.5 205t-50.5 260z" />
<glyph unicode="&#xe8;" horiz-adv-x="1189" d="M98 547q0 145 55.5 273t171 208t283.5 80q221 0 352.5 -144.5t131.5 -418.5v-60h-787v-14q0 -82 37 -153.5t104.5 -115.5t155.5 -44q96 0 166 48t100 130h209q-41 -152 -161.5 -251t-309.5 -99q-168 0 -282.5 79.5t-170 207.5t-55.5 274zM267 1606h217l204 -377h-170z M311 631h574q-8 166 -83 240.5t-198 74.5q-131 0 -210 -86t-83 -229z" />
<glyph unicode="&#xe9;" horiz-adv-x="1189" d="M98 547q0 145 55.5 273t171 208t283.5 80q221 0 352.5 -144.5t131.5 -418.5v-60h-787v-14q0 -82 37 -153.5t104.5 -115.5t155.5 -44q96 0 166 48t100 130h209q-41 -152 -161.5 -251t-309.5 -99q-168 0 -282.5 79.5t-170 207.5t-55.5 274zM311 631h574q-8 166 -83 240.5 t-198 74.5q-131 0 -210 -86t-83 -229zM528 1229l203 377h219l-252 -377h-170z" />
<glyph unicode="&#xea;" horiz-adv-x="1189" d="M98 547q0 145 55.5 273t171 208t283.5 80q221 0 352.5 -144.5t131.5 -418.5v-60h-787v-14q0 -82 37 -153.5t104.5 -115.5t155.5 -44q96 0 166 48t100 130h209q-41 -152 -161.5 -251t-309.5 -99q-168 0 -282.5 79.5t-170 207.5t-55.5 274zM248 1214l276 308h172l277 -308 h-205l-156 172h-8l-156 -172h-200zM311 631h574q-8 166 -83 240.5t-198 74.5q-131 0 -210 -86t-83 -229z" />
<glyph unicode="&#xeb;" horiz-adv-x="1189" d="M98 547q0 145 55.5 273t171 208t283.5 80q221 0 352.5 -144.5t131.5 -418.5v-60h-787v-14q0 -82 37 -153.5t104.5 -115.5t155.5 -44q96 0 166 48t100 130h209q-41 -152 -161.5 -251t-309.5 -99q-168 0 -282.5 79.5t-170 207.5t-55.5 274zM267 1405q0 55 37 92t92 37 t92 -38t37 -91t-37 -91t-92 -38t-92 37t-37 92zM311 631h574q-8 166 -83 240.5t-198 74.5q-131 0 -210 -86t-83 -229zM707 1405q0 55 37 92t92 37t92 -38t37 -91t-37 -91t-92 -38t-92 37t-37 92z" />
<glyph unicode="&#xec;" horiz-adv-x="534" d="M-73 1606h217l204 -377h-170zM162 0v1079h211v-1079h-211z" />
<glyph unicode="&#xed;" horiz-adv-x="534" d="M162 0v1079h211v-1079h-211zM188 1229l203 377h219l-252 -377h-170z" />
<glyph unicode="&#xee;" horiz-adv-x="534" d="M-92 1214l276 308h172l277 -308h-205l-156 172h-8l-156 -172h-200zM162 0v1079h211v-1079h-211z" />
<glyph unicode="&#xef;" horiz-adv-x="534" d="M-73 1405q0 55 37 92t92 37t92 -38t37 -91t-37 -91t-92 -38t-92 37t-37 92zM162 0v1079h211v-1079h-211zM367 1405q0 55 37 92t92 37t92 -38t37 -91t-37 -91t-92 -38t-92 37t-37 92z" />
<glyph unicode="&#xf0;" horiz-adv-x="1253" d="M72 563q0 150 53 274t155.5 197.5t241.5 73.5q141 0 225 -65.5t125 -147.5h17v39q0 252 -129 391l-187 -106l-61 108l143 82q-61 37 -123.5 51.5t-107.5 14.5v161q82 2 194.5 -25.5t212.5 -99.5l187 109l63 -109l-149 -86q168 -186 168 -503v-359q0 -152 -56.5 -284 t-173 -212.5t-286.5 -80.5t-285 80.5t-171 213t-56 283.5zM289 547q0 -162 74.5 -273.5t222.5 -111.5q145 0 222 112.5t77 274.5t-77 272.5t-222 110.5q-147 0 -222 -111.5t-75 -273.5z" />
<glyph unicode="&#xf1;" horiz-adv-x="1245" d="M141 0v1079h213v-184h17q39 90 127 151.5t217 61.5q139 0 229 -66.5t131 -170t41 -220.5v-651h-211v621q0 147 -74.5 225t-197.5 78q-129 0 -204 -84t-75 -219v-621h-213zM319 1268q-6 96 38 167.5t145 71.5q41 0 74.5 -15t76.5 -44q6 -4 25.5 -16.5t36 -18.5t30.5 -6 q35 0 50.5 28.5t11.5 71.5h119q8 -96 -35 -166.5t-146 -70.5q-41 0 -72.5 14t-78.5 43q-31 20 -51.5 30.5t-40.5 10.5q-37 0 -51.5 -28.5t-10.5 -71.5h-121z" />
<glyph unicode="&#xf2;" horiz-adv-x="1212" d="M98 545q0 150 56.5 277.5t171 206.5t280.5 79t280.5 -79t172 -207t57.5 -275t-57.5 -275.5t-172 -207t-280.5 -78.5t-280.5 77.5t-171 205.5t-56.5 276zM267 1606h217l204 -377h-170zM307 549q0 -166 79 -276.5t220 -110.5q142 0 220.5 110.5t78.5 276.5t-78.5 274.5 t-220.5 108.5q-139 0 -219 -109.5t-80 -273.5z" />
<glyph unicode="&#xf3;" horiz-adv-x="1212" d="M98 545q0 150 56.5 277.5t171 206.5t280.5 79t280.5 -79t172 -207t57.5 -275t-57.5 -275.5t-172 -207t-280.5 -78.5t-280.5 77.5t-171 205.5t-56.5 276zM307 549q0 -166 79 -276.5t220 -110.5q142 0 220.5 110.5t78.5 276.5t-78.5 274.5t-220.5 108.5q-139 0 -219 -109.5 t-80 -273.5zM526 1229l203 377h219l-252 -377h-170z" />
<glyph unicode="&#xf4;" horiz-adv-x="1212" d="M98 545q0 150 56.5 277.5t171 206.5t280.5 79t280.5 -79t172 -207t57.5 -275t-57.5 -275.5t-172 -207t-280.5 -78.5t-280.5 77.5t-171 205.5t-56.5 276zM246 1214l276 308h172l277 -308h-205l-156 172h-8l-156 -172h-200zM307 549q0 -166 79 -276.5t220 -110.5 q142 0 220.5 110.5t78.5 276.5t-78.5 274.5t-220.5 108.5q-139 0 -219 -109.5t-80 -273.5z" />
<glyph unicode="&#xf5;" horiz-adv-x="1212" d="M98 545q0 150 56.5 277.5t171 206.5t280.5 79t280.5 -79t172 -207t57.5 -275t-57.5 -275.5t-172 -207t-280.5 -78.5t-280.5 77.5t-171 205.5t-56.5 276zM303 1268q-6 96 38 167.5t145 71.5q41 0 74.5 -15t76.5 -44q6 -4 25.5 -16.5t36 -18.5t30.5 -6q35 0 50.5 28.5 t11.5 71.5h119q8 -96 -35 -166.5t-146 -70.5q-41 0 -72.5 14t-78.5 43q-31 20 -51.5 30.5t-40.5 10.5q-37 0 -51.5 -28.5t-10.5 -71.5h-121zM307 549q0 -166 79 -276.5t220 -110.5q142 0 220.5 110.5t78.5 276.5t-78.5 274.5t-220.5 108.5q-139 0 -219 -109.5t-80 -273.5z " />
<glyph unicode="&#xf6;" horiz-adv-x="1212" d="M98 545q0 150 56.5 277.5t171 206.5t280.5 79t280.5 -79t172 -207t57.5 -275t-57.5 -275.5t-172 -207t-280.5 -78.5t-280.5 77.5t-171 205.5t-56.5 276zM265 1405q0 55 37 92t92 37t92 -38t37 -91t-37 -91t-92 -38t-92 37t-37 92zM307 549q0 -166 79 -276.5t220 -110.5 q142 0 220.5 110.5t78.5 276.5t-78.5 274.5t-220.5 108.5q-139 0 -219 -109.5t-80 -273.5zM705 1405q0 55 37 92t92 37t92 -38t37 -91t-37 -91t-92 -38t-92 37t-37 92z" />
<glyph unicode="&#xf7;" horiz-adv-x="1228" d="M154 549v176h827v-176h-827zM436 264q0 55 38 94t93 39q57 0 95 -39t38 -94t-37.5 -94t-95.5 -39q-55 0 -93 39t-38 94zM436 1024q0 55 38 93t93 38q57 0 95 -38t38 -93t-37.5 -94t-95.5 -39q-55 0 -93 39t-38 94z" />
<glyph unicode="&#xf8;" horiz-adv-x="1212" d="M98 547q0 147 56.5 275t171 207t280.5 79q113 0 207 -39l70 123h157l-108 -197q90 -77 137 -195t47 -251q0 -147 -57.5 -276.5t-172 -208t-280.5 -78.5q-117 0 -215 43l-61 -109h-158l102 184q-86 78 -131 195t-45 248zM307 549q0 -160 70 -262l346 620q-51 25 -117 25 q-141 0 -220 -109.5t-79 -273.5zM481 193q57 -29 125 -29q142 0 220.5 110.5t78.5 274.5t-74 268z" />
<glyph unicode="&#xf9;" d="M141 436v643h211v-612q0 -143 72 -223t190 -80q125 0 197 85t72 218v612h213v-1079h-213v195h-15q-41 -90 -127 -151.5t-209 -61.5q-139 0 -226 66.5t-126 170t-39 217.5zM250 1606h217l204 -377h-170z" />
<glyph unicode="&#xfa;" d="M141 436v643h211v-612q0 -143 72 -223t190 -80q125 0 197 85t72 218v612h213v-1079h-213v195h-15q-41 -90 -127 -151.5t-209 -61.5q-139 0 -226 66.5t-126 170t-39 217.5zM512 1229l203 377h219l-252 -377h-170z" />
<glyph unicode="&#xfb;" d="M141 436v643h211v-612q0 -143 72 -223t190 -80q125 0 197 85t72 218v612h213v-1079h-213v195h-15q-41 -90 -127 -151.5t-209 -61.5q-139 0 -226 66.5t-126 170t-39 217.5zM232 1214l276 308h172l277 -308h-205l-156 172h-8l-156 -172h-200z" />
<glyph unicode="&#xfc;" d="M141 436v643h211v-612q0 -143 72 -223t190 -80q125 0 197 85t72 218v612h213v-1079h-213v195h-15q-41 -90 -127 -151.5t-209 -61.5q-139 0 -226 66.5t-126 170t-39 217.5zM250 1405q0 55 37 92t92 37t92 -38t37 -91t-37 -91t-92 -38t-92 37t-37 92zM690 1405q0 55 37 92 t92 37t92 -38t37 -91t-37 -91t-92 -38t-92 37t-37 92z" />
<glyph unicode="&#xfd;" horiz-adv-x="1105" d="M53 1079h219l279 -800h12l293 800h217l-493 -1231q-33 -77 -64 -129.5t-103.5 -100.5t-189.5 -48q-61 0 -131 16v154q49 -8 86 -8q68 0 109 24.5t64.5 64.5t54.5 113l45 109zM477 1229l203 377h219l-252 -377h-170z" />
<glyph unicode="&#xfe;" horiz-adv-x="1271" d="M139 -483v2019h215v-643h15q41 86 125 150.5t227 64.5q141 0 242.5 -72.5t153.5 -199.5t52 -291q0 -162 -52 -289t-152.5 -198.5t-239.5 -71.5q-141 0 -226 65.5t-130 155.5h-15v-690h-215zM356 545q0 -162 77 -272.5t222 -110.5q148 0 222.5 110.5t74.5 274.5 q0 162 -73.5 271.5t-223.5 109.5q-145 0 -222 -110.5t-77 -272.5z" />
<glyph unicode="&#xff;" horiz-adv-x="1105" d="M53 1079h219l279 -800h12l293 800h217l-493 -1231q-33 -77 -64 -129.5t-103.5 -100.5t-189.5 -48q-61 0 -131 16v154q49 -8 86 -8q68 0 109 24.5t64.5 64.5t54.5 113l45 109zM215 1405q0 55 37 92t92 37t92 -38t37 -91t-37 -91t-92 -38t-92 37t-37 92zM655 1405 q0 55 37 92t92 37t92 -38t37 -91t-37 -91t-92 -38t-92 37t-37 92z" />
<glyph unicode="&#x152;" horiz-adv-x="1976" d="M84 717q0 207 76 369.5t223 255t352 92.5h1125v-189h-693v-430h602v-170h-602v-457h693v-188h-1125q-207 0 -353 92t-222 254t-76 371zM309 717q0 -233 113 -378.5t313 -145.5h219v1050h-219q-133 0 -229 -67.5t-146.5 -186.5t-50.5 -272z" />
<glyph unicode="&#x153;" horiz-adv-x="1996" d="M98 543q0 147 56.5 275t170 207t273.5 79q145 0 249.5 -69.5t156.5 -176.5h14q49 109 151.5 179.5t249.5 70.5q217 0 348 -145.5t131 -417.5v-60h-774v-14q0 -84 38 -155.5t105.5 -114.5t149.5 -43q92 0 162 48t102 130h205q-41 -150 -162.5 -250t-306.5 -100 q-145 0 -246.5 67.5t-152.5 173.5h-14q-49 -104 -154 -174.5t-252 -70.5q-162 0 -274.5 77.5t-169 205.5t-56.5 278zM303 545q0 -166 80 -275.5t213 -111.5q137 0 220 109.5t83 275.5t-83 275.5t-220 109.5t-215 -109.5t-78 -273.5zM1124 631h572q-6 166 -82 240.5 t-197 74.5q-127 0 -207 -87t-86 -228z" />
<glyph unicode="&#x178;" horiz-adv-x="1277" d="M63 1434h228l340 -695h14l338 695h227l-467 -922v-512l-211 -2v514zM295 1759q0 55 37 92t92 37t92 -38t37 -91t-37 -91t-92 -38t-92 37t-37 92zM735 1759q0 55 37 92t92 37t92 -38t37 -91t-37 -91t-92 -38t-92 37t-37 92z" />
<glyph unicode="&#x2c6;" horiz-adv-x="874" d="M74 1214l276 308h172l277 -308h-205l-156 172h-8l-156 -172h-200z" />
<glyph unicode="&#x2dc;" horiz-adv-x="796" d="M94 1268q-6 96 38 167.5t145 71.5q41 0 74.5 -15t76.5 -44q6 -4 25.5 -16.5t36 -18.5t30.5 -6q35 0 50.5 28.5t11.5 71.5h119q8 -96 -35 -166.5t-146 -70.5q-41 0 -72.5 14t-78.5 43q-31 20 -51.5 30.5t-40.5 10.5q-37 0 -51.5 -28.5t-10.5 -71.5h-121z" />
<glyph unicode="&#x2000;" horiz-adv-x="987" />
<glyph unicode="&#x2001;" horiz-adv-x="1974" />
<glyph unicode="&#x2002;" horiz-adv-x="987" />
<glyph unicode="&#x2003;" horiz-adv-x="1974" />
<glyph unicode="&#x2004;" horiz-adv-x="658" />
<glyph unicode="&#x2005;" horiz-adv-x="493" />
<glyph unicode="&#x2006;" horiz-adv-x="329" />
<glyph unicode="&#x2007;" horiz-adv-x="329" />
<glyph unicode="&#x2008;" horiz-adv-x="246" />
<glyph unicode="&#x2009;" horiz-adv-x="394" />
<glyph unicode="&#x200a;" horiz-adv-x="109" />
<glyph unicode="&#x2010;" d="M240 553v172h747v-172h-747z" />
<glyph unicode="&#x2011;" d="M240 553v172h747v-172h-747z" />
<glyph unicode="&#x2012;" d="M240 553v172h747v-172h-747z" />
<glyph unicode="&#x2013;" horiz-adv-x="1331" d="M227 553v172h877v-172h-877z" />
<glyph unicode="&#x2014;" horiz-adv-x="1568" d="M227 553v172h1112v-172h-1112z" />
<glyph unicode="&#x2018;" horiz-adv-x="593" d="M152 1184v78q0 129 64.5 204.5t170.5 106.5v-78q-125 -53 -125 -160q0 -53 19.5 -66.5t58.5 -13.5q57 -2 80.5 -33.5t23.5 -72.5q0 -57 -35.5 -94t-103.5 -37q-88 0 -120.5 49t-32.5 117z" />
<glyph unicode="&#x2019;" horiz-adv-x="555" d="M170 1376q0 57 36 93t103 36q88 0 121 -49t33 -117v-77q0 -129 -64.5 -205t-171.5 -107v80q125 49 125 160q0 53 -19.5 65.5t-58.5 14.5q-57 2 -80.5 33.5t-23.5 72.5z" />
<glyph unicode="&#x201a;" horiz-adv-x="616" d="M148 94q0 59 36.5 97t106.5 38q160 0 160 -172v-80q0 -135 -67 -212.5t-177 -108.5v80q129 55 129 166q0 55 -20.5 68.5t-61.5 13.5q-57 2 -81.5 34.5t-24.5 75.5z" />
<glyph unicode="&#x201c;" horiz-adv-x="1046" d="M152 1182v78q0 129 64.5 204.5t170.5 106.5v-78q-125 -53 -125 -162q0 -53 19.5 -65.5t58.5 -12.5q57 -2 80.5 -33.5t23.5 -72.5q0 -57 -35.5 -94t-103.5 -37q-88 0 -120.5 49t-32.5 117zM625 1188v78q0 129 64.5 204.5t170.5 106.5v-80q-127 -51 -127 -160 q0 -53 19.5 -65t60.5 -15q57 -2 81 -33.5t24 -72.5q0 -57 -36 -93t-104 -36q-88 0 -120.5 49t-32.5 117z" />
<glyph unicode="&#x201d;" horiz-adv-x="1083" d="M160 1399q0 57 35.5 94t101.5 37q90 0 123 -49t33 -117v-78q0 -129 -64.5 -204.5t-173.5 -106.5v78q127 53 127 159q0 55 -19.5 67.5t-60.5 12.5q-57 2 -79.5 34t-22.5 73zM631 1397q0 57 35.5 94t103.5 37q154 0 154 -168v-76q0 -131 -64.5 -205.5t-173.5 -105.5v78 q127 53 127 159q0 55 -19.5 67.5t-60.5 12.5q-57 2 -79.5 34t-22.5 73z" />
<glyph unicode="&#x201e;" horiz-adv-x="1077" d="M152 92q0 57 35.5 93t103.5 36q88 0 120.5 -49t32.5 -117v-78q0 -129 -64.5 -204.5t-170.5 -106.5v80q127 51 127 160q0 53 -19.5 65.5t-60.5 14.5q-57 2 -80.5 33.5t-23.5 72.5zM623 92q0 57 35.5 93t103.5 36q88 0 120.5 -49t32.5 -117v-78q0 -129 -64.5 -204.5 t-170.5 -106.5v80q125 51 125 160q0 53 -19.5 65.5t-60.5 14.5q-57 2 -79.5 32.5t-22.5 73.5z" />
<glyph unicode="&#x2022;" horiz-adv-x="866" d="M137 764q0 90 61.5 153.5t153.5 63.5t154.5 -63.5t62.5 -153.5t-62.5 -153.5t-154.5 -63.5t-153.5 63.5t-61.5 153.5z" />
<glyph unicode="&#x2026;" horiz-adv-x="1693" d="M168 119q0 55 38 93t95 38t95 -38t38 -93t-38 -94t-95 -39t-95 38.5t-38 94.5zM694 119q0 55 38 93t95 38t95 -38t38 -93t-38 -94t-95 -39t-95 38.5t-38 94.5zM1223 119q0 55 38 93t95 38t95 -38t38 -93t-38 -94t-95 -39t-95 38.5t-38 94.5z" />
<glyph unicode="&#x202f;" horiz-adv-x="394" />
<glyph unicode="&#x2039;" horiz-adv-x="774" d="M78 643l407 436h213l-399 -436l399 -434h-213z" />
<glyph unicode="&#x203a;" horiz-adv-x="774" d="M78 209l399 434l-399 436h213l407 -436l-407 -434h-213z" />
<glyph unicode="&#x205f;" horiz-adv-x="493" />
<glyph unicode="&#x20ac;" horiz-adv-x="1421" d="M27 514v104h170q-4 57 -4 87q0 31 4 88h-170v104h184q45 238 194.5 382t378.5 144q223 0 369.5 -136t192.5 -359h-205q-31 137 -126 222t-229 85q-141 0 -232 -90t-124 -248h375v-104h-389q-4 -57 -4 -88q0 -29 4 -87h389v-104h-375q33 -160 123 -249t233 -89 q129 0 219.5 77t127.5 198h204q-49 -209 -192.5 -337t-360.5 -128q-229 0 -378.5 145t-196.5 383h-182z" />
<glyph unicode="&#x2122;" horiz-adv-x="811" d="M49 1358v76h270v-76h-90v-271h-94v271h-86zM356 1087v347h136l57 -125h6l57 125h131v-347h-88v230l-80 -150h-45l-79 150v-230h-95z" />
<glyph unicode="&#x25fc;" horiz-adv-x="1075" d="M0 0v1075h1075v-1075h-1075z" />
</font>
</defs>
</svg>
